# xmcd
#
# Track frame offsets:
#	150
#	16407
#	33992
#	64797
#
# Disc length: 1060 seconds
#
# Revision: 1
# Processed by: cddbd v1.5.1PL0 Copyright (c) Steve Scherf et al.
# Submitted via: audiograbber 1.83.01
#
DISCID=2a042204
DTITLE=CIRCUS OF POWER - Single
DYEAR=1990
DGENRE=Hard-rock
TTITLE0=Vices (edit)
TTITLE1=Call of the wild (live)
TTITLE2=Los Angeles (live)
TTITLE3=Gates of love (live)
EXTD=
EXTT0=
EXTT1=
EXTT2=
EXTT3=
PLAYORDER=
